<mxfile host="Electron" agent="Mozilla/5.0 (Macintosh; Intel Mac OS X 10_15_7) AppleWebKit/537.36 (KHTML, like Gecko) draw.io/26.0.9 Chrome/128.0.6613.186 Electron/32.2.5 Safari/537.36" version="26.0.9" pages="2">
  <diagram name="Add joint invoice" id="8MDporz_g2Um2DUFQjdH">
    <mxGraphModel dx="1586" dy="878" grid="0" gridSize="10" guides="1" tooltips="1" connect="1" arrows="1" fold="1" page="0" pageScale="1" pageWidth="827" pageHeight="1169" math="0" shadow="0">
      <root>
        <mxCell id="0" />
        <mxCell id="1" parent="0" />
        <mxCell id="ErJsUryPeic-7oZZHzyE-3" style="edgeStyle=orthogonalEdgeStyle;rounded=0;orthogonalLoop=1;jettySize=auto;html=1;" parent="1" source="ErJsUryPeic-7oZZHzyE-1" target="ErJsUryPeic-7oZZHzyE-2" edge="1">
          <mxGeometry relative="1" as="geometry" />
        </mxCell>
        <mxCell id="ErJsUryPeic-7oZZHzyE-1" value="Joint invoice agreement&lt;br&gt;signed and registered&lt;br&gt;in Datahub" style="points=[[0.145,0.145,0],[0.5,0,0],[0.855,0.145,0],[1,0.5,0],[0.855,0.855,0],[0.5,1,0],[0.145,0.855,0],[0,0.5,0]];shape=mxgraph.bpmn.event;html=1;verticalLabelPosition=top;labelBackgroundColor=#ffffff;verticalAlign=bottom;align=center;perimeter=ellipsePerimeter;outlineConnect=0;aspect=fixed;outline=standard;symbol=general;fontFamily=Helvetica;fontSize=12;fontColor=#4D4D4D;fillColor=#f8cecc;strokeColor=#4D4D4D;rounded=1;shadow=0;strokeWidth=1;gradientColor=#FF9999;gradientDirection=east;labelPosition=center;" parent="1" vertex="1">
          <mxGeometry x="-8" y="292" width="50" height="50" as="geometry" />
        </mxCell>
        <mxCell id="ErJsUryPeic-7oZZHzyE-5" value="" style="edgeStyle=orthogonalEdgeStyle;rounded=0;orthogonalLoop=1;jettySize=auto;html=1;" parent="1" source="ErJsUryPeic-7oZZHzyE-2" target="ErJsUryPeic-7oZZHzyE-4" edge="1">
          <mxGeometry relative="1" as="geometry" />
        </mxCell>
        <mxCell id="ErJsUryPeic-7oZZHzyE-2" value="Compose joint invoice in agreed format" style="rounded=1;whiteSpace=wrap;html=1;arcSize=20;fillColor=#fff2cc;strokeColor=#4D4D4D;shadow=0;fontColor=#4D4D4D;gradientColor=#FFE6CC;gradientDirection=east;glass=0;collapsible=0;backgroundOutline=0;enumerate=0;labelBackgroundColor=none;labelBorderColor=none;strokeWidth=1;" parent="1" vertex="1">
          <mxGeometry x="115" y="287" width="140" height="60" as="geometry">
            <mxRectangle x="340" y="420" width="90" height="30" as="alternateBounds" />
          </mxGeometry>
        </mxCell>
        <mxCell id="ErJsUryPeic-7oZZHzyE-9" style="edgeStyle=orthogonalEdgeStyle;rounded=0;orthogonalLoop=1;jettySize=auto;html=1;" parent="1" source="ErJsUryPeic-7oZZHzyE-4" target="ErJsUryPeic-7oZZHzyE-8" edge="1">
          <mxGeometry relative="1" as="geometry" />
        </mxCell>
        <mxCell id="3ln-3Bt3ZYaKmS4pvewE-1" style="edgeStyle=orthogonalEdgeStyle;rounded=0;orthogonalLoop=1;jettySize=auto;html=1;dashed=1;dashPattern=8 8;" parent="1" source="ErJsUryPeic-7oZZHzyE-4" target="ErJsUryPeic-7oZZHzyE-10" edge="1">
          <mxGeometry relative="1" as="geometry">
            <Array as="points">
              <mxPoint x="368" y="404" />
              <mxPoint x="17" y="404" />
            </Array>
          </mxGeometry>
        </mxCell>
        <mxCell id="ErJsUryPeic-7oZZHzyE-4" value="Send joint invoice message" style="whiteSpace=wrap;html=1;fillColor=#fff2cc;strokeColor=#4D4D4D;fontColor=#4D4D4D;rounded=1;arcSize=20;shadow=0;gradientColor=#FFE6CC;gradientDirection=east;glass=0;labelBackgroundColor=none;labelBorderColor=none;strokeWidth=1;" parent="1" vertex="1">
          <mxGeometry x="308" y="287" width="120" height="60" as="geometry" />
        </mxCell>
        <mxCell id="ErJsUryPeic-7oZZHzyE-7" style="rounded=0;orthogonalLoop=1;jettySize=auto;html=1;dashed=1;endArrow=none;endFill=0;" parent="1" source="ErJsUryPeic-7oZZHzyE-6" target="ErJsUryPeic-7oZZHzyE-4" edge="1">
          <mxGeometry relative="1" as="geometry" />
        </mxCell>
        <mxCell id="ErJsUryPeic-7oZZHzyE-6" value="POST /api/{version}/joint-invoice" style="shape=note2;boundedLbl=1;whiteSpace=wrap;html=1;size=25;verticalAlign=top;align=center;" parent="1" vertex="1">
          <mxGeometry x="258" y="181" width="220" height="60" as="geometry" />
        </mxCell>
        <mxCell id="ErJsUryPeic-7oZZHzyE-8" value="" style="points=[[0.145,0.145,0],[0.5,0,0],[0.855,0.145,0],[1,0.5,0],[0.855,0.855,0],[0.5,1,0],[0.145,0.855,0],[0,0.5,0]];shape=mxgraph.bpmn.event;html=1;verticalLabelPosition=top;labelBackgroundColor=#ffffff;verticalAlign=middle;align=center;perimeter=ellipsePerimeter;outlineConnect=0;aspect=fixed;outline=end;symbol=terminate2;fontFamily=Helvetica;fontSize=12;fontColor=#000000;fillColor=#f8cecc;strokeColor=#4D4D4D;rounded=1;shadow=0;strokeWidth=1;gradientColor=#FF9999;gradientDirection=east;spacing=0;spacingTop=0;spacingLeft=0;spacingBottom=0;labelPosition=center;" parent="1" vertex="1">
          <mxGeometry x="512" y="292" width="50" height="50" as="geometry" />
        </mxCell>
        <mxCell id="ErJsUryPeic-7oZZHzyE-12" style="edgeStyle=orthogonalEdgeStyle;rounded=0;orthogonalLoop=1;jettySize=auto;html=1;" parent="1" source="ErJsUryPeic-7oZZHzyE-10" target="ErJsUryPeic-7oZZHzyE-11" edge="1">
          <mxGeometry relative="1" as="geometry" />
        </mxCell>
        <mxCell id="ErJsUryPeic-7oZZHzyE-10" value="" style="points=[[0.145,0.145,0],[0.5,0,0],[0.855,0.145,0],[1,0.5,0],[0.855,0.855,0],[0.5,1,0],[0.145,0.855,0],[0,0.5,0]];shape=mxgraph.bpmn.event;html=1;verticalLabelPosition=bottom;labelBackgroundColor=#ffffff;verticalAlign=bottom;align=center;perimeter=ellipsePerimeter;outlineConnect=0;aspect=fixed;outline=standard;symbol=general;fontFamily=Helvetica;fontSize=12;fontColor=#4D4D4D;fillColor=#f8cecc;strokeColor=#4D4D4D;rounded=1;shadow=0;strokeWidth=1;gradientColor=#FF9999;gradientDirection=east;" parent="1" vertex="1">
          <mxGeometry x="-8" y="479" width="50" height="50" as="geometry" />
        </mxCell>
        <mxCell id="ErJsUryPeic-7oZZHzyE-16" style="edgeStyle=orthogonalEdgeStyle;rounded=0;orthogonalLoop=1;jettySize=auto;html=1;" parent="1" source="ErJsUryPeic-7oZZHzyE-11" target="ErJsUryPeic-7oZZHzyE-20" edge="1">
          <mxGeometry relative="1" as="geometry">
            <mxPoint x="255" y="504" as="targetPoint" />
          </mxGeometry>
        </mxCell>
        <mxCell id="ErJsUryPeic-7oZZHzyE-17" value="YES" style="edgeLabel;html=1;align=center;verticalAlign=middle;resizable=0;points=[];" parent="ErJsUryPeic-7oZZHzyE-16" vertex="1" connectable="0">
          <mxGeometry x="-0.0968" relative="1" as="geometry">
            <mxPoint y="1" as="offset" />
          </mxGeometry>
        </mxCell>
        <mxCell id="PganEAhVCDFw7vlcWrkV-1" style="edgeStyle=orthogonalEdgeStyle;rounded=0;orthogonalLoop=1;jettySize=auto;html=1;" parent="1" source="ErJsUryPeic-7oZZHzyE-11" target="ErJsUryPeic-7oZZHzyE-29" edge="1">
          <mxGeometry relative="1" as="geometry" />
        </mxCell>
        <mxCell id="PganEAhVCDFw7vlcWrkV-2" value="NO" style="edgeLabel;html=1;align=center;verticalAlign=middle;resizable=0;points=[];" parent="PganEAhVCDFw7vlcWrkV-1" vertex="1" connectable="0">
          <mxGeometry x="-0.2825" y="-2" relative="1" as="geometry">
            <mxPoint as="offset" />
          </mxGeometry>
        </mxCell>
        <mxCell id="ErJsUryPeic-7oZZHzyE-11" value="Sender and receiver&lt;br&gt;have joint invoice agreement(s)&lt;br&gt;for the whole period?" style="points=[[0.25,0.25,0],[0.5,0,0],[0.75,0.25,0],[1,0.5,0],[0.75,0.75,0],[0.5,1,0],[0.25,0.75,0],[0,0.5,0]];shape=mxgraph.bpmn.gateway2;html=1;verticalLabelPosition=top;labelBackgroundColor=#ffffff;verticalAlign=middle;align=center;perimeter=rhombusPerimeter;outlineConnect=0;outline=none;symbol=none;fontFamily=Helvetica;fontSize=12;fontColor=#000000;fillColor=#D5E8D4;strokeColor=#4D4D4D;rounded=0;shadow=0;gradientColor=#97D077;gradientDirection=east;spacing=0;labelPosition=center;" parent="1" vertex="1">
          <mxGeometry x="105" y="479" width="50" height="50" as="geometry" />
        </mxCell>
        <mxCell id="ErJsUryPeic-7oZZHzyE-38" value="" style="edgeStyle=orthogonalEdgeStyle;rounded=0;orthogonalLoop=1;jettySize=auto;html=1;" parent="1" source="ErJsUryPeic-7oZZHzyE-20" target="ErJsUryPeic-7oZZHzyE-37" edge="1">
          <mxGeometry relative="1" as="geometry" />
        </mxCell>
        <mxCell id="ErJsUryPeic-7oZZHzyE-20" value="Save joint invoice" style="rounded=1;whiteSpace=wrap;html=1;arcSize=20;fillColor=#fff2cc;strokeColor=#4D4D4D;shadow=0;fontColor=#4D4D4D;gradientColor=#FFE6CC;gradientDirection=east;glass=0;collapsible=0;backgroundOutline=0;enumerate=0;labelBackgroundColor=none;labelBorderColor=none;strokeWidth=1;" parent="1" vertex="1">
          <mxGeometry x="246" y="474" width="140" height="60" as="geometry">
            <mxRectangle x="340" y="420" width="90" height="30" as="alternateBounds" />
          </mxGeometry>
        </mxCell>
        <mxCell id="ErJsUryPeic-7oZZHzyE-40" style="edgeStyle=orthogonalEdgeStyle;rounded=0;orthogonalLoop=1;jettySize=auto;html=1;" parent="1" source="ErJsUryPeic-7oZZHzyE-37" target="ErJsUryPeic-7oZZHzyE-39" edge="1">
          <mxGeometry relative="1" as="geometry" />
        </mxCell>
        <mxCell id="ErJsUryPeic-7oZZHzyE-37" value="Distribute to open or named supplier" style="whiteSpace=wrap;html=1;fillColor=#fff2cc;strokeColor=#4D4D4D;fontColor=#4D4D4D;rounded=1;arcSize=20;shadow=0;gradientColor=#FFE6CC;gradientDirection=east;glass=0;labelBackgroundColor=none;labelBorderColor=none;strokeWidth=1;" parent="1" vertex="1">
          <mxGeometry x="443" y="474" width="120" height="60" as="geometry" />
        </mxCell>
        <mxCell id="ErJsUryPeic-7oZZHzyE-39" value="" style="points=[[0.145,0.145,0],[0.5,0,0],[0.855,0.145,0],[1,0.5,0],[0.855,0.855,0],[0.5,1,0],[0.145,0.855,0],[0,0.5,0]];shape=mxgraph.bpmn.event;html=1;verticalLabelPosition=top;labelBackgroundColor=#ffffff;verticalAlign=middle;align=center;perimeter=ellipsePerimeter;outlineConnect=0;aspect=fixed;outline=end;symbol=terminate2;fontFamily=Helvetica;fontSize=12;fontColor=#000000;fillColor=#f8cecc;strokeColor=#4D4D4D;rounded=1;shadow=0;strokeWidth=1;gradientColor=#FF9999;gradientDirection=east;spacing=0;spacingTop=0;spacingLeft=0;spacingBottom=0;labelPosition=center;" parent="1" vertex="1">
          <mxGeometry x="624" y="479" width="50" height="50" as="geometry" />
        </mxCell>
        <mxCell id="ErJsUryPeic-7oZZHzyE-41" value="Grid operator" style="swimlane;html=1;horizontal=0;startSize=20;strokeColor=#4D4D4D;fillColor=#dae8fc;connectable=0;allowArrows=0;recursiveResize=0;fontColor=#4D4D4D;gradientColor=#A9C4EB;gradientDirection=north;rotation=0;" parent="1" vertex="1">
          <mxGeometry x="-82" y="169" width="779" height="211" as="geometry" />
        </mxCell>
        <mxCell id="ErJsUryPeic-7oZZHzyE-42" value="Datahub" style="swimlane;html=1;horizontal=0;startSize=20;strokeColor=#4D4D4D;fillColor=#dae8fc;connectable=0;allowArrows=0;recursiveResize=0;fontColor=#4D4D4D;gradientColor=#A9C4EB;gradientDirection=north;rotation=0;" parent="1" vertex="1">
          <mxGeometry x="-82" y="380" width="779" height="299" as="geometry" />
        </mxCell>
        <mxCell id="ErJsUryPeic-7oZZHzyE-29" value="Error" style="points=[[0.145,0.145,0],[0.5,0,0],[0.855,0.145,0],[1,0.5,0],[0.855,0.855,0],[0.5,1,0],[0.145,0.855,0],[0,0.5,0]];shape=mxgraph.bpmn.event;html=1;verticalLabelPosition=bottom;labelBackgroundColor=#ffffff;verticalAlign=top;align=center;perimeter=ellipsePerimeter;outlineConnect=0;aspect=fixed;outline=end;symbol=terminate2;fontFamily=Helvetica;fontSize=12;fontColor=#000000;fillColor=#f8cecc;strokeColor=#4D4D4D;rounded=1;shadow=0;strokeWidth=1;gradientColor=#FF9999;gradientDirection=east;spacing=0;spacingTop=0;spacingLeft=0;spacingBottom=0;labelPosition=center;" parent="ErJsUryPeic-7oZZHzyE-42" vertex="1">
          <mxGeometry x="187" y="217" width="50" height="50" as="geometry" />
        </mxCell>
      </root>
    </mxGraphModel>
  </diagram>
  <diagram id="RRt0JlioAHXpC4tP_UKX" name="Ühisarve võrguarve lisamine">
    <mxGraphModel dx="1586" dy="878" grid="0" gridSize="10" guides="1" tooltips="1" connect="1" arrows="1" fold="1" page="0" pageScale="1" pageWidth="827" pageHeight="1169" math="0" shadow="0">
      <root>
        <mxCell id="0" />
        <mxCell id="1" parent="0" />
        <mxCell id="aUxfDn-0duZV7Zlwz5kJ-1" style="edgeStyle=orthogonalEdgeStyle;rounded=0;orthogonalLoop=1;jettySize=auto;html=1;" parent="1" source="aUxfDn-0duZV7Zlwz5kJ-2" target="aUxfDn-0duZV7Zlwz5kJ-4" edge="1">
          <mxGeometry relative="1" as="geometry" />
        </mxCell>
        <mxCell id="aUxfDn-0duZV7Zlwz5kJ-2" value="Ühisarve leping on&amp;nbsp;&lt;br&gt;sõlmitud ja lisatud&lt;br&gt;Andmelattu" style="points=[[0.145,0.145,0],[0.5,0,0],[0.855,0.145,0],[1,0.5,0],[0.855,0.855,0],[0.5,1,0],[0.145,0.855,0],[0,0.5,0]];shape=mxgraph.bpmn.event;html=1;verticalLabelPosition=top;labelBackgroundColor=#ffffff;verticalAlign=bottom;align=center;perimeter=ellipsePerimeter;outlineConnect=0;aspect=fixed;outline=standard;symbol=general;fontFamily=Helvetica;fontSize=12;fontColor=#4D4D4D;fillColor=#f8cecc;strokeColor=#4D4D4D;rounded=1;shadow=0;strokeWidth=1;gradientColor=#FF9999;gradientDirection=east;labelPosition=center;" parent="1" vertex="1">
          <mxGeometry x="-8" y="292" width="50" height="50" as="geometry" />
        </mxCell>
        <mxCell id="aUxfDn-0duZV7Zlwz5kJ-3" value="" style="edgeStyle=orthogonalEdgeStyle;rounded=0;orthogonalLoop=1;jettySize=auto;html=1;" parent="1" source="aUxfDn-0duZV7Zlwz5kJ-4" target="aUxfDn-0duZV7Zlwz5kJ-6" edge="1">
          <mxGeometry relative="1" as="geometry" />
        </mxCell>
        <mxCell id="aUxfDn-0duZV7Zlwz5kJ-4" value="Ühisarve võrguarve koostamine ettenähtud formaadis" style="rounded=1;whiteSpace=wrap;html=1;arcSize=20;fillColor=#fff2cc;strokeColor=#4D4D4D;shadow=0;fontColor=#4D4D4D;gradientColor=#FFE6CC;gradientDirection=east;glass=0;collapsible=0;backgroundOutline=0;enumerate=0;labelBackgroundColor=none;labelBorderColor=none;strokeWidth=1;" parent="1" vertex="1">
          <mxGeometry x="115" y="287" width="140" height="60" as="geometry">
            <mxRectangle x="340" y="420" width="90" height="30" as="alternateBounds" />
          </mxGeometry>
        </mxCell>
        <mxCell id="aUxfDn-0duZV7Zlwz5kJ-5" style="edgeStyle=orthogonalEdgeStyle;rounded=0;orthogonalLoop=1;jettySize=auto;html=1;" parent="1" source="aUxfDn-0duZV7Zlwz5kJ-6" target="aUxfDn-0duZV7Zlwz5kJ-9" edge="1">
          <mxGeometry relative="1" as="geometry" />
        </mxCell>
        <mxCell id="56tKm2xbbI2hdgiJlcFT-1" style="edgeStyle=orthogonalEdgeStyle;rounded=0;orthogonalLoop=1;jettySize=auto;html=1;dashed=1;dashPattern=8 8;" parent="1" source="aUxfDn-0duZV7Zlwz5kJ-6" target="aUxfDn-0duZV7Zlwz5kJ-11" edge="1">
          <mxGeometry relative="1" as="geometry">
            <Array as="points">
              <mxPoint x="368" y="408" />
              <mxPoint x="17" y="408" />
            </Array>
          </mxGeometry>
        </mxCell>
        <mxCell id="aUxfDn-0duZV7Zlwz5kJ-6" value="Ühisarve võrguarve sõnumi saatmine" style="whiteSpace=wrap;html=1;fillColor=#fff2cc;strokeColor=#4D4D4D;fontColor=#4D4D4D;rounded=1;arcSize=20;shadow=0;gradientColor=#FFE6CC;gradientDirection=east;glass=0;labelBackgroundColor=none;labelBorderColor=none;strokeWidth=1;" parent="1" vertex="1">
          <mxGeometry x="308" y="287" width="120" height="60" as="geometry" />
        </mxCell>
        <mxCell id="aUxfDn-0duZV7Zlwz5kJ-7" style="rounded=0;orthogonalLoop=1;jettySize=auto;html=1;dashed=1;endArrow=none;endFill=0;" parent="1" source="aUxfDn-0duZV7Zlwz5kJ-8" target="aUxfDn-0duZV7Zlwz5kJ-6" edge="1">
          <mxGeometry relative="1" as="geometry" />
        </mxCell>
        <mxCell id="aUxfDn-0duZV7Zlwz5kJ-8" value="POST /api/{version}/joint-invoice" style="shape=note2;boundedLbl=1;whiteSpace=wrap;html=1;size=25;verticalAlign=top;align=center;" parent="1" vertex="1">
          <mxGeometry x="258" y="181" width="220" height="60" as="geometry" />
        </mxCell>
        <mxCell id="aUxfDn-0duZV7Zlwz5kJ-9" value="" style="points=[[0.145,0.145,0],[0.5,0,0],[0.855,0.145,0],[1,0.5,0],[0.855,0.855,0],[0.5,1,0],[0.145,0.855,0],[0,0.5,0]];shape=mxgraph.bpmn.event;html=1;verticalLabelPosition=top;labelBackgroundColor=#ffffff;verticalAlign=middle;align=center;perimeter=ellipsePerimeter;outlineConnect=0;aspect=fixed;outline=end;symbol=terminate2;fontFamily=Helvetica;fontSize=12;fontColor=#000000;fillColor=#f8cecc;strokeColor=#4D4D4D;rounded=1;shadow=0;strokeWidth=1;gradientColor=#FF9999;gradientDirection=east;spacing=0;spacingTop=0;spacingLeft=0;spacingBottom=0;labelPosition=center;" parent="1" vertex="1">
          <mxGeometry x="512" y="292" width="50" height="50" as="geometry" />
        </mxCell>
        <mxCell id="aUxfDn-0duZV7Zlwz5kJ-10" style="edgeStyle=orthogonalEdgeStyle;rounded=0;orthogonalLoop=1;jettySize=auto;html=1;" parent="1" source="aUxfDn-0duZV7Zlwz5kJ-11" target="aUxfDn-0duZV7Zlwz5kJ-14" edge="1">
          <mxGeometry relative="1" as="geometry" />
        </mxCell>
        <mxCell id="aUxfDn-0duZV7Zlwz5kJ-11" value="" style="points=[[0.145,0.145,0],[0.5,0,0],[0.855,0.145,0],[1,0.5,0],[0.855,0.855,0],[0.5,1,0],[0.145,0.855,0],[0,0.5,0]];shape=mxgraph.bpmn.event;html=1;verticalLabelPosition=bottom;labelBackgroundColor=#ffffff;verticalAlign=bottom;align=center;perimeter=ellipsePerimeter;outlineConnect=0;aspect=fixed;outline=standard;symbol=general;fontFamily=Helvetica;fontSize=12;fontColor=#4D4D4D;fillColor=#f8cecc;strokeColor=#4D4D4D;rounded=1;shadow=0;strokeWidth=1;gradientColor=#FF9999;gradientDirection=east;" parent="1" vertex="1">
          <mxGeometry x="-8" y="479" width="50" height="50" as="geometry" />
        </mxCell>
        <mxCell id="aUxfDn-0duZV7Zlwz5kJ-12" style="edgeStyle=orthogonalEdgeStyle;rounded=0;orthogonalLoop=1;jettySize=auto;html=1;" parent="1" source="aUxfDn-0duZV7Zlwz5kJ-14" target="aUxfDn-0duZV7Zlwz5kJ-29" edge="1">
          <mxGeometry relative="1" as="geometry">
            <mxPoint x="255" y="504" as="targetPoint" />
          </mxGeometry>
        </mxCell>
        <mxCell id="aUxfDn-0duZV7Zlwz5kJ-13" value="JAH" style="edgeLabel;html=1;align=center;verticalAlign=middle;resizable=0;points=[];" parent="aUxfDn-0duZV7Zlwz5kJ-12" vertex="1" connectable="0">
          <mxGeometry x="-0.0968" relative="1" as="geometry">
            <mxPoint y="1" as="offset" />
          </mxGeometry>
        </mxCell>
        <mxCell id="T-I8wuxd750K8y5newgh-1" style="edgeStyle=orthogonalEdgeStyle;rounded=0;orthogonalLoop=1;jettySize=auto;html=1;" parent="1" source="aUxfDn-0duZV7Zlwz5kJ-14" target="aUxfDn-0duZV7Zlwz5kJ-30" edge="1">
          <mxGeometry relative="1" as="geometry" />
        </mxCell>
        <mxCell id="T-I8wuxd750K8y5newgh-2" value="EI" style="edgeLabel;html=1;align=center;verticalAlign=middle;resizable=0;points=[];" parent="T-I8wuxd750K8y5newgh-1" vertex="1" connectable="0">
          <mxGeometry x="-0.1717" y="1" relative="1" as="geometry">
            <mxPoint as="offset" />
          </mxGeometry>
        </mxCell>
        <mxCell id="aUxfDn-0duZV7Zlwz5kJ-14" value="Saatja ja adressaadi vahel&lt;br&gt;on kehtiv ühisarve leping,&amp;nbsp;&lt;br&gt;mis katab terve perioodi?" style="points=[[0.25,0.25,0],[0.5,0,0],[0.75,0.25,0],[1,0.5,0],[0.75,0.75,0],[0.5,1,0],[0.25,0.75,0],[0,0.5,0]];shape=mxgraph.bpmn.gateway2;html=1;verticalLabelPosition=top;labelBackgroundColor=#ffffff;verticalAlign=middle;align=center;perimeter=rhombusPerimeter;outlineConnect=0;outline=none;symbol=none;fontFamily=Helvetica;fontSize=12;fontColor=#000000;fillColor=#D5E8D4;strokeColor=#4D4D4D;rounded=0;shadow=0;gradientColor=#97D077;gradientDirection=east;spacing=0;labelPosition=center;" parent="1" vertex="1">
          <mxGeometry x="105" y="479" width="50" height="50" as="geometry" />
        </mxCell>
        <mxCell id="aUxfDn-0duZV7Zlwz5kJ-28" value="" style="edgeStyle=orthogonalEdgeStyle;rounded=0;orthogonalLoop=1;jettySize=auto;html=1;" parent="1" source="aUxfDn-0duZV7Zlwz5kJ-29" target="aUxfDn-0duZV7Zlwz5kJ-36" edge="1">
          <mxGeometry relative="1" as="geometry" />
        </mxCell>
        <mxCell id="aUxfDn-0duZV7Zlwz5kJ-29" value="Ühisarve võrguarve salvestamine" style="rounded=1;whiteSpace=wrap;html=1;arcSize=20;fillColor=#fff2cc;strokeColor=#4D4D4D;shadow=0;fontColor=#4D4D4D;gradientColor=#FFE6CC;gradientDirection=east;glass=0;collapsible=0;backgroundOutline=0;enumerate=0;labelBackgroundColor=none;labelBorderColor=none;strokeWidth=1;" parent="1" vertex="1">
          <mxGeometry x="236" y="474" width="140" height="60" as="geometry">
            <mxRectangle x="340" y="420" width="90" height="30" as="alternateBounds" />
          </mxGeometry>
        </mxCell>
        <mxCell id="aUxfDn-0duZV7Zlwz5kJ-35" style="edgeStyle=orthogonalEdgeStyle;rounded=0;orthogonalLoop=1;jettySize=auto;html=1;" parent="1" source="aUxfDn-0duZV7Zlwz5kJ-36" target="aUxfDn-0duZV7Zlwz5kJ-37" edge="1">
          <mxGeometry relative="1" as="geometry" />
        </mxCell>
        <mxCell id="aUxfDn-0duZV7Zlwz5kJ-36" value="Info levitamine avatud või nimetatud tarnijale" style="whiteSpace=wrap;html=1;fillColor=#fff2cc;strokeColor=#4D4D4D;fontColor=#4D4D4D;rounded=1;arcSize=20;shadow=0;gradientColor=#FFE6CC;gradientDirection=east;glass=0;labelBackgroundColor=none;labelBorderColor=none;strokeWidth=1;" parent="1" vertex="1">
          <mxGeometry x="433" y="474" width="120" height="60" as="geometry" />
        </mxCell>
        <mxCell id="aUxfDn-0duZV7Zlwz5kJ-37" value="" style="points=[[0.145,0.145,0],[0.5,0,0],[0.855,0.145,0],[1,0.5,0],[0.855,0.855,0],[0.5,1,0],[0.145,0.855,0],[0,0.5,0]];shape=mxgraph.bpmn.event;html=1;verticalLabelPosition=top;labelBackgroundColor=#ffffff;verticalAlign=middle;align=center;perimeter=ellipsePerimeter;outlineConnect=0;aspect=fixed;outline=end;symbol=terminate2;fontFamily=Helvetica;fontSize=12;fontColor=#000000;fillColor=#f8cecc;strokeColor=#4D4D4D;rounded=1;shadow=0;strokeWidth=1;gradientColor=#FF9999;gradientDirection=east;spacing=0;spacingTop=0;spacingLeft=0;spacingBottom=0;labelPosition=center;" parent="1" vertex="1">
          <mxGeometry x="614" y="479" width="50" height="50" as="geometry" />
        </mxCell>
        <mxCell id="aUxfDn-0duZV7Zlwz5kJ-38" value="Võrguettevõtja" style="swimlane;html=1;horizontal=0;startSize=20;strokeColor=#4D4D4D;fillColor=#dae8fc;connectable=0;allowArrows=0;recursiveResize=0;fontColor=#4D4D4D;gradientColor=#A9C4EB;gradientDirection=north;rotation=0;" parent="1" vertex="1">
          <mxGeometry x="-82" y="169" width="779" height="211" as="geometry" />
        </mxCell>
        <mxCell id="aUxfDn-0duZV7Zlwz5kJ-39" value="Andmeladu" style="swimlane;html=1;horizontal=0;startSize=20;strokeColor=#4D4D4D;fillColor=#dae8fc;connectable=0;allowArrows=0;recursiveResize=0;fontColor=#4D4D4D;gradientColor=#A9C4EB;gradientDirection=north;rotation=0;" parent="1" vertex="1">
          <mxGeometry x="-82" y="380" width="779" height="295" as="geometry" />
        </mxCell>
        <mxCell id="aUxfDn-0duZV7Zlwz5kJ-30" value="Veaolukord" style="points=[[0.145,0.145,0],[0.5,0,0],[0.855,0.145,0],[1,0.5,0],[0.855,0.855,0],[0.5,1,0],[0.145,0.855,0],[0,0.5,0]];shape=mxgraph.bpmn.event;html=1;verticalLabelPosition=bottom;labelBackgroundColor=#ffffff;verticalAlign=top;align=center;perimeter=ellipsePerimeter;outlineConnect=0;aspect=fixed;outline=end;symbol=terminate2;fontFamily=Helvetica;fontSize=12;fontColor=#000000;fillColor=#f8cecc;strokeColor=#4D4D4D;rounded=1;shadow=0;strokeWidth=1;gradientColor=#FF9999;gradientDirection=east;spacing=0;spacingTop=0;spacingLeft=0;spacingBottom=0;labelPosition=center;" parent="aUxfDn-0duZV7Zlwz5kJ-39" vertex="1">
          <mxGeometry x="187" y="215" width="50" height="50" as="geometry" />
        </mxCell>
      </root>
    </mxGraphModel>
  </diagram>
</mxfile>
